<svg id="Capa_1" enable-background="new 0 0 508.979 508.979" viewBox="0 0 508.979 508.979" xmlns="http://www.w3.org/2000/svg"><g><g><path d="m400.879 155.369c0-80.84-65.54-146.39-146.39-146.39-174.72 4.085-200.21 247.504-32.53 289.15v61.58h-65.07v65.06h65.07v74.21h65.06v-74.21h65.06v-65.06h-65.06v-61.58c65.19-14.79 113.86-73.09 113.86-142.76zm-146.39 88.45c-48.85 0-88.45-39.6-88.45-88.45 4.339-117.182 172.566-117.16 176.89.001 0 48.849-39.6 88.449-88.44 88.449z" fill="#c99bf7"/></g><g><path d="m287.019 359.709v-61.58c15.56-3.53 30.17-9.54 43.41-17.59-37.95-4.24-72.81-18.69-101.77-40.56-33.52-10.21-58.58-39.79-62.17-75.69-15.681-31.995-23.154-70.625-19.91-107.84-76.083 80.926-32.493 218.572 75.38 241.68v61.58h-65.07v65.06h65.07v74.21h65.06v-74.21h65.06v-65.06z" fill="#6a64fb"/></g></g><g><path d="m336.226 190.533-71.736-40.019v-81.418c0-5.523-4.478-10-10-10-5.523 0-10 4.477-10 10v81.417l-71.775 40.019c-4.824 2.689-6.554 8.78-3.864 13.604 2.689 4.824 8.78 6.555 13.604 3.864l62.036-34.589v65.848c0 5.523 4.477 10 10 10s10-4.477 10-10v-65.843l61.992 34.583c4.734 2.666 10.899 1.008 13.605-3.861 2.689-4.824.961-10.915-3.862-13.605z" fill="#6a64fb"/><g><path d="m287.021 508.979h-65.062c-5.523 0-10-4.477-10-10v-64.211h-55.062c-5.523 0-10-4.477-10-10v-65.062c0-5.523 4.477-10 10-10h55.062v-43.811c-65.895-17.732-114.783-82.097-113.859-150.527 7.855-207.173 304.943-207.144 312.779.003.917 68.423-47.959 132.796-113.859 150.523v43.811h55.062c5.522 0 10 4.477 10 10v65.062c0 5.523-4.478 10-10 10h-55.062v64.211c.001 5.524-4.477 10.001-9.999 10.001zm-55.063-20h45.062v-64.211c0-5.523 4.478-10 10-10h55.062v-45.062h-55.062c-5.522 0-10-4.477-10-10v-61.58c0-4.67 3.232-8.719 7.787-9.752 157.223-38.86 131.461-265.93-30.32-269.394-161.815 3.524-187.532 230.503-30.314 269.394 4.553 1.033 7.785 5.081 7.785 9.752v61.58c0 5.523-4.477 10-10 10h-55.062v45.062h55.062c5.523 0 10 4.477 10 10z" fill="#002678"/></g><g><path d="m254.489 253.813c-54.282 0-98.444-44.162-98.444-98.444 4.949-130.42 191.959-130.384 196.888.001.001 54.281-44.162 98.443-98.444 98.443zm0-176.888c-43.254 0-78.444 35.19-78.444 78.444 3.944 103.924 152.96 103.895 156.888-.001.001-43.253-35.19-78.443-78.444-78.443z" fill="#002678"/></g></g><g/><g/><g/><g/><g/><g/><g/><g/><g/><g/><g/><g/><g/><g/><g/></svg>